<?xml version="1.0" encoding="UTF-8"?>
<svg id="Layer_1" data-name="Layer 1" xmlns="http://www.w3.org/2000/svg" viewBox="0 0 192.72 35.03">
  <g>
    <path d="M.73,8.64c.6.34,1.5.64,2.44.64,1.19,0,1.84-.55,1.84-1.38,0-.76-.51-1.21-1.8-1.68C1.55,5.62.49,4.74.49,3.29.49,1.63,1.87.38,4.06.38c1.1,0,1.91.24,2.43.51l-.45,1.49c-.36-.2-1.06-.48-2.01-.48-1.17,0-1.68.63-1.68,1.21,0,.78.59,1.14,1.94,1.67,1.75.66,2.61,1.54,2.61,3,0,1.62-1.23,3.03-3.84,3.03-1.06,0-2.17-.3-2.73-.63l.41-1.53Z" fill="#ffffff" stroke-width="0"/>
    <path d="M10.57,6.55h.03c.18-.29.39-.6.58-.86l1.77-2.35h2.22l-2.7,2.98,3.09,4.32h-2.26l-2.1-3.22-.63.73v2.49h-1.85V0h1.85v6.55Z" fill="#ffffff" stroke-width="0"/>
    <path d="M23.5,6.93c0,2.68-1.89,3.88-3.75,3.88-2.07,0-3.66-1.42-3.66-3.76s1.58-3.87,3.78-3.87,3.63,1.53,3.63,3.75ZM17.99,7c0,1.41.69,2.47,1.81,2.47,1.05,0,1.79-1.04,1.79-2.5,0-1.14-.51-2.45-1.77-2.45s-1.83,1.26-1.83,2.48Z" fill="#ffffff" stroke-width="0"/>
    <path d="M31.97,3.34c-.03.5-.06,1.09-.06,2.1v4.14c0,1.53-.31,2.62-1.08,3.32-.77.67-1.81.88-2.82.88-.93,0-1.92-.2-2.55-.58l.41-1.39c.46.27,1.24.55,2.13.55,1.2,0,2.1-.63,2.1-2.21v-.63h-.03c-.42.64-1.17,1.08-2.13,1.08-1.81,0-3.1-1.5-3.1-3.57,0-2.4,1.56-3.85,3.31-3.85,1.11,0,1.77.54,2.11,1.14h.03l.07-.97h1.6ZM30.07,6.27c0-.17-.02-.34-.06-.5-.19-.67-.72-1.18-1.5-1.18-1.03,0-1.8.9-1.8,2.38,0,1.25.63,2.25,1.79,2.25.69,0,1.29-.45,1.5-1.11.05-.19.08-.45.08-.66v-1.18Z" fill="#ffffff" stroke-width="0"/>
    <path d="M36.02,6.55h.03c.18-.29.39-.6.58-.86l1.77-2.35h2.22l-2.7,2.98,3.09,4.32h-2.26l-2.1-3.22-.63.73v2.49h-1.85V0h1.85v6.55Z" fill="#ffffff" stroke-width="0"/>
    <path d="M48.65,8.46c0,.87.03,1.59.06,2.19h-1.62l-.09-1.11h-.03c-.31.53-1.03,1.28-2.34,1.28s-2.55-.79-2.55-3.18V3.34h1.84v3.97c0,1.21.39,2,1.37,2,.73,0,1.21-.53,1.41-.99.06-.17.1-.36.1-.57V3.34h1.85v5.12Z" fill="#ffffff" stroke-width="0"/>
    <path d="M50.95,5.7c0-.99-.01-1.69-.06-2.35h1.6l.06,1.39h.06c.36-1.03,1.21-1.56,2-1.56.18,0,.28.01.44.04v1.74c-.15-.03-.31-.06-.54-.06-.89,0-1.48.57-1.65,1.4-.03.17-.06.36-.06.57v3.78h-1.85v-4.95Z" fill="#ffffff" stroke-width="0"/>
    <path d="M56.5,8.95c.42.26,1.21.53,1.88.53.81,0,1.17-.33,1.17-.81s-.3-.75-1.2-1.07c-1.43-.5-2.02-1.28-2.01-2.13,0-1.29,1.06-2.29,2.76-2.29.81,0,1.52.21,1.94.43l-.36,1.31c-.31-.18-.9-.42-1.54-.42s-1.02.31-1.02.76.35.69,1.27,1.02c1.32.48,1.94,1.16,1.95,2.24,0,1.32-1.04,2.28-2.97,2.28-.88,0-1.68-.21-2.22-.51l.36-1.33Z" fill="#ffffff" stroke-width="0"/>
  </g>
  <g>
    <path d="M0,18.59h2.09v7.8h.07c.43-.62.86-1.2,1.27-1.73l4.94-6.07h2.59l-5.86,6.87,6.31,9.31h-2.47l-5.33-7.94-1.54,1.78v6.17H0v-16.18Z" fill="#ffffff" stroke-width="0"/>
    <path d="M23.69,28.86c0,4.3-2.98,6.17-5.78,6.17-3.14,0-5.57-2.3-5.57-5.98,0-3.89,2.54-6.17,5.76-6.17s5.59,2.42,5.59,5.98ZM14.47,28.98c0,2.54,1.46,4.46,3.53,4.46s3.53-1.9,3.53-4.51c0-1.97-.98-4.46-3.48-4.46s-3.58,2.3-3.58,4.51Z" fill="#ffffff" stroke-width="0"/>
    <path d="M26.28,32.61c.62.41,1.73.84,2.78.84,1.54,0,2.26-.77,2.26-1.73,0-1.01-.6-1.56-2.16-2.14-2.09-.74-3.07-1.9-3.07-3.29,0-1.87,1.51-3.41,4.01-3.41,1.18,0,2.21.34,2.86.72l-.53,1.54c-.46-.29-1.3-.67-2.38-.67-1.25,0-1.94.72-1.94,1.58,0,.96.7,1.39,2.21,1.97,2.02.77,3.05,1.78,3.05,3.5,0,2.04-1.58,3.48-4.34,3.48-1.27,0-2.45-.31-3.26-.79l.53-1.61Z" fill="#ffffff" stroke-width="0"/>
    <path d="M38.86,19.81v3.34h3.02v1.61h-3.02v6.26c0,1.44.41,2.26,1.58,2.26.55,0,.96-.07,1.22-.14l.1,1.58c-.41.17-1.06.29-1.87.29-.98,0-1.78-.31-2.28-.89-.6-.62-.82-1.66-.82-3.02v-6.34h-1.8v-1.61h1.8v-2.78l2.06-.55Z" fill="#ffffff" stroke-width="0"/>
    <path d="M44.47,26.29c0-1.2-.02-2.18-.1-3.14h1.87l.12,1.92h.05c.58-1.1,1.92-2.18,3.84-2.18,1.61,0,4.1.96,4.1,4.94v6.94h-2.11v-6.7c0-1.87-.7-3.43-2.69-3.43-1.39,0-2.47.98-2.83,2.16-.1.26-.14.62-.14.98v6.98h-2.11v-8.47Z" fill="#ffffff" stroke-width="0"/>
    <path d="M64.44,34.77l-.17-1.46h-.07c-.65.91-1.9,1.73-3.55,1.73-2.35,0-3.55-1.66-3.55-3.34,0-2.81,2.5-4.34,6.98-4.32v-.24c0-.96-.26-2.69-2.64-2.69-1.08,0-2.21.34-3.02.86l-.48-1.39c.96-.62,2.35-1.03,3.82-1.03,3.55,0,4.42,2.42,4.42,4.75v4.34c0,1.01.05,1.99.19,2.78h-1.92ZM64.13,28.84c-2.3-.05-4.92.36-4.92,2.62,0,1.37.91,2.02,1.99,2.02,1.51,0,2.47-.96,2.81-1.94.07-.22.12-.46.12-.67v-2.02Z" fill="#ffffff" stroke-width="0"/>
    <path d="M79.85,17.73v14.04c0,1.03.02,2.21.1,3h-1.9l-.1-2.02h-.05c-.65,1.3-2.06,2.28-3.96,2.28-2.81,0-4.97-2.38-4.97-5.9-.02-3.86,2.38-6.24,5.21-6.24,1.78,0,2.98.84,3.5,1.78h.05v-6.94h2.11ZM77.74,27.88c0-.26-.02-.62-.1-.89-.31-1.34-1.46-2.45-3.05-2.45-2.18,0-3.48,1.92-3.48,4.49,0,2.35,1.15,4.3,3.43,4.3,1.42,0,2.71-.94,3.1-2.52.07-.29.1-.58.1-.91v-2.02Z" fill="#ffffff" stroke-width="0"/>
    <path d="M83.28,32.61c.62.41,1.73.84,2.78.84,1.54,0,2.26-.77,2.26-1.73,0-1.01-.6-1.56-2.16-2.14-2.09-.74-3.07-1.9-3.07-3.29,0-1.87,1.51-3.41,4.01-3.41,1.18,0,2.21.34,2.86.72l-.53,1.54c-.46-.29-1.3-.67-2.38-.67-1.25,0-1.94.72-1.94,1.58,0,.96.7,1.39,2.21,1.97,2.02.77,3.05,1.78,3.05,3.5,0,2.04-1.58,3.48-4.34,3.48-1.27,0-2.45-.31-3.26-.79l.53-1.61Z" fill="#ffffff" stroke-width="0"/>
    <path d="M95.38,28.48h.05c.29-.41.7-.91,1.03-1.32l3.41-4.01h2.54l-4.49,4.78,5.11,6.84h-2.57l-4.01-5.57-1.08,1.2v4.37h-2.09v-17.04h2.09v10.75Z" fill="#ffffff" stroke-width="0"/>
    <path d="M111.62,34.77l-.17-1.46h-.07c-.65.91-1.9,1.73-3.55,1.73-2.35,0-3.55-1.66-3.55-3.34,0-2.81,2.5-4.34,6.98-4.32v-.24c0-.96-.26-2.69-2.64-2.69-1.08,0-2.21.34-3.02.86l-.48-1.39c.96-.62,2.35-1.03,3.82-1.03,3.55,0,4.42,2.42,4.42,4.75v4.34c0,1.01.05,1.99.19,2.78h-1.92ZM111.31,28.84c-2.3-.05-4.92.36-4.92,2.62,0,1.37.91,2.02,1.99,2.02,1.51,0,2.47-.96,2.81-1.94.07-.22.12-.46.12-.67v-2.02Z" fill="#ffffff" stroke-width="0"/>
    <path d="M117,17.73h2.11v17.04h-2.11v-17.04Z" fill="#ffffff" stroke-width="0"/>
    <path d="M124.99,28.48h.05c.29-.41.7-.91,1.03-1.32l3.41-4.01h2.54l-4.49,4.78,5.11,6.84h-2.57l-4.01-5.57-1.08,1.2v4.37h-2.09v-17.04h2.09v10.75Z" fill="#ffffff" stroke-width="0"/>
    <path d="M144.19,31.6c0,1.2.02,2.26.1,3.17h-1.87l-.12-1.9h-.05c-.55.94-1.78,2.16-3.84,2.16-1.82,0-4.01-1.01-4.01-5.09v-6.79h2.11v6.43c0,2.21.67,3.7,2.59,3.7,1.42,0,2.4-.98,2.78-1.92.12-.31.19-.7.19-1.08v-7.13h2.11v8.45Z" fill="#ffffff" stroke-width="0"/>
    <path d="M147.93,17.73h2.11v17.04h-2.11v-17.04Z" fill="#ffffff" stroke-width="0"/>
    <path d="M160.27,34.77l-.17-1.46h-.07c-.65.91-1.9,1.73-3.55,1.73-2.35,0-3.55-1.66-3.55-3.34,0-2.81,2.5-4.34,6.98-4.32v-.24c0-.96-.26-2.69-2.64-2.69-1.08,0-2.21.34-3.02.86l-.48-1.39c.96-.62,2.35-1.03,3.82-1.03,3.55,0,4.42,2.42,4.42,4.75v4.34c0,1.01.05,1.99.19,2.78h-1.92ZM159.96,28.84c-2.3-.05-4.92.36-4.92,2.62,0,1.37.91,2.02,1.99,2.02,1.51,0,2.47-.96,2.81-1.94.07-.22.12-.46.12-.67v-2.02Z" fill="#ffffff" stroke-width="0"/>
    <path d="M168.07,19.81v3.34h3.02v1.61h-3.02v6.26c0,1.44.41,2.26,1.58,2.26.55,0,.96-.07,1.22-.14l.1,1.58c-.41.17-1.06.29-1.87.29-.98,0-1.78-.31-2.28-.89-.6-.62-.82-1.66-.82-3.02v-6.34h-1.8v-1.61h1.8v-2.78l2.06-.55Z" fill="#ffffff" stroke-width="0"/>
    <path d="M184.08,28.86c0,4.3-2.98,6.17-5.78,6.17-3.14,0-5.57-2.3-5.57-5.98,0-3.89,2.54-6.17,5.76-6.17s5.59,2.42,5.59,5.98ZM174.86,28.98c0,2.54,1.46,4.46,3.53,4.46s3.53-1.9,3.53-4.51c0-1.97-.98-4.46-3.48-4.46s-3.58,2.3-3.58,4.51Z" fill="#ffffff" stroke-width="0"/>
    <path d="M186.98,26.77c0-1.37-.02-2.54-.1-3.62h1.85l.07,2.28h.1c.53-1.56,1.8-2.54,3.22-2.54.24,0,.41.02.6.07v1.99c-.22-.05-.43-.07-.72-.07-1.49,0-2.54,1.13-2.83,2.71-.05.29-.1.62-.1.98v6.19h-2.09v-7.99Z" fill="#ffffff" stroke-width="0"/>
  </g>
</svg>