<?xml version="1.0" encoding="utf-8"?>
<!-- Generator: Adobe Illustrator 18.0.0, SVG Export Plug-In . SVG Version: 6.00 Build 0)  -->
<!DOCTYPE svg PUBLIC "-//W3C//DTD SVG 1.1//EN" "http://www.w3.org/Graphics/SVG/1.1/DTD/svg11.dtd">
<svg version="1.1" id="Layer_9" xmlns="http://www.w3.org/2000/svg" xmlns:xlink="http://www.w3.org/1999/xlink" x="0px" y="0px"
	 viewBox="0 0 1272.4 367" enable-background="new 0 0 1272.4 367" xml:space="preserve">
<g id="Luftbakgrunn">
</g>
<g id="Tre_og_årringer">
	<g id="Tre">
		<path fill="#FFFFFF" d="M272.1,240.7c-2.3-3.8-7.3-5.1-11.2-2.7l-49.2,29.9v-23.3l43.6-26.5c3.8-2.3,5.1-7.3,2.7-11.2
			c-2.3-3.8-7.3-5.1-11.2-2.7l-35.2,21.4v-23.3l29.7-18.1c3.8-2.3,5.1-7.3,2.7-11.2c-2.3-3.8-7.3-5.1-11.2-2.7l-21.3,13v-23.3
			l15.8-9.6c3.8-2.3,5.1-7.3,2.7-11.2c-2.3-3.8-7.3-5.1-11.2-2.7l-7.3,4.5V96.4c0-4.5-3.6-8.1-8.1-8.1c-4.5,0-8.1,3.6-8.1,8.1v44.7
			l-7.3-4.5c-3.8-2.3-8.8-1.1-11.2,2.7c-2.3,3.8-1.1,8.8,2.7,11.2l15.8,9.6v23.3l-21.3-13c-3.8-2.3-8.8-1.1-11.2,2.7
			c-2.3,3.8-1.1,8.8,2.7,11.2l29.7,18.1v23.3l-35.2-21.4c-3.8-2.3-8.8-1.1-11.2,2.7c-2.3,3.8-1.1,8.8,2.7,11.2l43.6,26.5v23.3
			L146.2,238c-3.8-2.3-8.8-1.1-11.2,2.7c-2.3,3.8-1.1,8.8,2.7,11.2l57.7,35v35c0,4.5,3.6,8.1,8.1,8.1c4.5,0,8.1-3.6,8.1-8.1v-35
			l57.7-35C273.2,249.6,274.4,244.6,272.1,240.7z"/>
	</g>
	<g id="Årringer_1_">
		<g id="Årringer_2_">
			<path fill="#FFFFFF" d="M140.1,151c4.5,0,8.1,3.6,8.1,8.1c0,4.5-3.6,8.1-8.1,8.1c-4.5,0-8.1-3.6-8.1-8.1
				C131.9,154.7,135.6,151,140.1,151 M140.1,145.3c-7.6,0-13.9,6.2-13.9,13.9c0,7.6,6.2,13.9,13.9,13.9s13.9-6.2,13.9-13.9
				C153.9,151.5,147.7,145.3,140.1,145.3L140.1,145.3z"/>
			<path fill="#FFFFFF" d="M162,136.1c0,0-0.3-0.4-0.8-1.2c-0.3-0.4-0.6-0.9-1-1.4c-0.4-0.5-1-1.1-1.6-1.8c-1.2-1.3-2.9-2.8-5.1-4.2
				c-1.1-0.7-2.3-1.4-3.6-2c-0.7-0.3-1.4-0.6-2.1-0.9c-0.7-0.3-1.5-0.5-2.4-0.8c-0.4-0.1-0.9-0.2-1.3-0.3c-0.4-0.1-0.9-0.2-1.2-0.3
				c-0.7-0.1-1.5-0.3-2.3-0.4l-0.3-0.1l-0.1,0l-0.4,0l-0.7,0c-0.5,0-0.9,0-1.4-0.1c-0.5,0-0.9,0-1.4-0.1c-0.5,0-1,0-1.4,0.1
				c-1,0.1-2,0.1-2.9,0.2c-1,0.2-2,0.3-3,0.5c-1,0.3-2,0.5-3,0.9c-1,0.3-2,0.8-3,1.2c-1,0.4-2,0.9-2.9,1.4c-0.5,0.3-1,0.5-1.4,0.8
				l-1.4,0.9l-1.4,1l-1.3,1.1c-0.9,0.7-1.7,1.5-2.5,2.3c-3.2,3.3-5.8,7.3-7.6,11.6c-0.4,1.1-0.8,2.2-1.2,3.3
				c-0.3,1.1-0.6,2.3-0.8,3.4c-0.2,1.3-0.4,2.5-0.5,3.8c0,0.3,0,0.5,0,0.8l0,0.7l0,1.4l0,1.1l0.1,0.9l0.1,1.7
				c0.1,1.1,0.3,2.2,0.5,3.3c0.1,0.5,0.2,1.1,0.3,1.6l0.5,1.6c0.3,1.1,0.7,2.1,1.1,3.1c1.6,4,3.9,7.5,6.6,10.3
				c2.7,2.8,5.6,4.9,8.5,6.5c2.9,1.5,5.8,2.4,8.3,2.9c1.3,0.3,2.4,0.4,3.6,0.5c0.6,0,1.1,0.1,1.6,0.1c0.5,0,1,0,1.5-0.1
				c1.9,0,3.1-0.4,4-0.5c0.2,0,0.4-0.1,0.6-0.1c0.1,0,0.1,0,0.3-0.1c0.1,0,0.1,0,0.2-0.1c0.2-0.1,0.3-0.1,0.3-0.1l0.1,0
				c0.2,0,0.3-0.2,0.3-0.4c0-0.2-0.2-0.4-0.4-0.4c0,0-0.1,0-0.3,0c-0.1,0-0.1,0-0.2,0c-0.1,0-0.1,0-0.2,0c-0.2,0-0.4,0-0.6,0
				c-0.9-0.1-2.2-0.1-3.8-0.5c-0.8-0.1-1.7-0.3-2.6-0.6c-0.5-0.1-1-0.3-1.5-0.4c-0.5-0.1-1-0.4-1.5-0.6c-0.5-0.2-1.1-0.4-1.6-0.7
				c-0.5-0.3-1.1-0.6-1.7-0.9c-0.6-0.3-1.1-0.6-1.7-1c-0.6-0.4-1.2-0.7-1.7-1.1c-2.3-1.6-4.5-3.7-6.5-6.2c-2-2.5-3.6-5.5-4.7-8.8
				c-1.1-3.3-1.7-6.9-1.6-10.5c0.1-0.9,0.1-1.9,0.2-2.8c0.1-0.9,0.3-1.8,0.4-2.7l0.7-2.7c0.3-0.9,0.6-1.7,0.9-2.6
				c1.4-3.4,3.4-6.6,5.9-9.3c2.5-2.7,5.4-4.9,8.5-6.5c0.8-0.4,1.5-0.8,2.4-1.1c0.8-0.3,1.6-0.6,2.4-0.9c0.8-0.2,1.6-0.4,2.4-0.6
				c0.8-0.2,1.6-0.3,2.4-0.4c0.4-0.1,0.8-0.1,1.2-0.2c0.4,0,0.8,0,1.2-0.1c0.8,0,1.6-0.1,2.3-0.1c0.8,0,1.5,0.1,2.3,0.1
				c0.7,0,1.4,0.2,2.1,0.3c1.4,0.1,2.7,0.6,3.9,0.8c1.2,0.4,2.4,0.8,3.4,1.2c2.1,0.9,3.8,1.9,5.2,2.8c0.7,0.5,1.3,0.9,1.8,1.3
				c0.5,0.4,0.9,0.8,1.2,1c0.7,0.6,1,0.9,1,0.9c0.1,0.1,0.3,0.1,0.5,0C162.1,136.6,162.2,136.3,162,136.1L162,136.1z"/>
			<path fill="#FFFFFF" d="M170,116.7c0,0-0.5-0.5-1.5-1.5c-1-1-2.6-2.3-4.7-3.8c-1.1-0.7-2.3-1.5-3.7-2.3c-0.7-0.4-1.4-0.8-2.2-1.2
				c-0.8-0.4-1.6-0.8-2.5-1.1c-0.9-0.3-1.8-0.7-2.7-1.1c-1-0.3-1.9-0.6-2.9-0.9c-1-0.4-2.1-0.5-3.2-0.8c-1.1-0.2-2.3-0.5-3.4-0.6
				c-0.5-0.1-1.1-0.1-1.6-0.2l-0.8-0.1l-0.4-0.1l-0.6,0c-1.2,0-2.5-0.1-3.7-0.1c-0.6,0-1.3-0.1-1.9,0c-0.6,0.1-1.3,0.1-2,0.2
				c-1.3,0.1-2.7,0.2-4,0.4c-5.4,0.8-11.1,2.5-16.4,5.4c-1.3,0.7-2.7,1.5-4,2.3c-1.3,0.9-2.6,1.8-3.8,2.7c-2.5,1.9-4.9,4-7,6.4
				c-4.3,4.7-8,10.3-10.6,16.3c-0.6,1.5-1.1,3.1-1.6,4.6c-0.5,1.6-0.8,3.2-1.2,4.8L83,147l-0.2,1.3l-0.4,2.6
				c-0.1,0.8-0.2,1.7-0.3,2.5l-0.1,2.1l-0.1,2.1l0,0.5l0,0.3l0,0.4l0,0.1l0,0.1l0.1,1.2c0.2,1.6,0.2,3.2,0.5,4.7
				c0.3,1.5,0.5,3.1,0.8,4.6c0.4,1.5,0.8,3,1.2,4.4c1.8,5.8,4.6,11,7.9,15.4c1.6,2.2,3.4,4.2,5.1,6.1c0.9,0.9,1.9,1.7,2.8,2.5
				c0.9,0.8,1.9,1.5,2.8,2.2c0.9,0.7,1.8,1.4,2.8,2c0.9,0.6,1.9,1.2,2.8,1.7c0.9,0.5,1.9,0.9,2.8,1.4c0.9,0.4,1.8,0.9,2.6,1.2
				c1.8,0.6,3.3,1.4,4.9,1.7c1.6,0.4,2.9,0.8,4.3,1c1.3,0.2,2.5,0.4,3.5,0.5c1,0,1.8,0.1,2.5,0.1c1.4,0,2.1,0,2.1,0l0.1,0
				c0.2,0,0.4-0.1,0.4-0.3c0-0.2-0.1-0.4-0.3-0.5c0,0-0.7-0.2-2-0.5c-0.7-0.1-1.5-0.3-2.4-0.5c-0.9-0.3-2-0.6-3.2-1
				c-1.2-0.3-2.4-0.9-3.8-1.5c-1.4-0.5-2.8-1.4-4.3-2.1c-0.8-0.4-1.5-0.9-2.3-1.4c-0.8-0.5-1.6-1-2.4-1.5c-1.5-1.2-3.2-2.3-4.7-3.8
				c-0.8-0.7-1.6-1.4-2.4-2.2c-0.8-0.8-1.5-1.6-2.3-2.5c-1.4-1.8-2.9-3.6-4.2-5.7c-2.6-4.1-4.8-8.8-6.2-13.9
				c-1.4-5.1-1.9-10.7-1.6-16.2l0.1-2.1c0.1-0.7,0.2-1.4,0.3-2.1l0.3-2.1l0.2-1l0.3-1c0.4-1.4,0.7-2.7,1.1-4.1l1.5-4
				c2.2-5.2,5.2-10.1,8.9-14.2c3.7-4.2,8-7.7,12.6-10.3c4.6-2.6,9.5-4.5,14.2-5.5c4.8-0.9,9.4-1.4,13.7-1.1c1.1,0,2.1,0.2,3.1,0.3
				c1,0.1,2,0.2,2.9,0.4c1,0.2,1.9,0.4,2.8,0.5c0.9,0.2,1.7,0.5,2.6,0.7c1.7,0.4,3.2,1.1,4.6,1.5c1.4,0.6,2.6,1.2,3.8,1.7
				c2.2,1.2,3.9,2.1,5,2.9c1.1,0.7,1.7,1.1,1.7,1.1c0.2,0.1,0.4,0.1,0.5-0.1C170.2,117.2,170.2,116.9,170,116.7L170,116.7z"/>
			<path fill="#FFFFFF" d="M177.7,97.9c0,0-0.8-0.6-2.2-1.7c-0.7-0.5-1.6-1.3-2.8-2c-1.1-0.7-2.4-1.6-3.9-2.4
				c-1.5-0.8-3.2-1.8-5.1-2.6c-1-0.4-2-0.9-3-1.3c-1.1-0.4-2.2-0.8-3.4-1.2c-0.6-0.2-1.2-0.4-1.8-0.6c-0.6-0.2-1.2-0.3-1.9-0.5
				c-0.6-0.2-1.3-0.3-1.9-0.5c-0.6-0.2-1.3-0.3-2-0.5c-1.4-0.3-2.8-0.5-4.3-0.8c-1.4-0.2-2.8-0.3-4.2-0.5l-0.5-0.1l-0.3,0l-0.1,0
				c0.1,0-0.2,0-0.2,0l-0.1,0c-0.4,0-0.8,0-1.2,0c-0.8,0-1.6-0.1-2.4-0.1c-1.6,0-3.2,0-4.9,0.1c-1.7,0.1-3.4,0.2-5.1,0.5
				c-1.7,0.2-3.4,0.5-5.2,0.9c-3.5,0.8-7.1,1.7-10.6,3c-3.6,1.3-7.1,2.9-10.5,4.9c-6.8,3.9-13.5,8.9-18.9,15.2
				c-5.6,6.2-10.1,13.5-13.5,21.3c-1.6,3.9-2.8,8-3.8,12.1c-0.5,2.1-0.8,4.1-1.1,6.2l-0.4,3.1c-0.1,1-0.2,2.2-0.2,3.2L62,155l0,1.4
				l0,1.4l0,0.7c0,0,0,0.4,0,0.3l0,0.1l0,0.2l0,0.4c0.2,2.1,0.3,4.1,0.4,6.1c0.3,2,0.6,4,1,6c0.4,2,0.9,3.9,1.4,5.8
				c2.1,7.6,5.5,14.5,9.4,20.5c1,1.5,1.9,3,3,4.3c1.1,1.3,2.2,2.7,3.2,3.9c2.3,2.4,4.5,4.7,6.9,6.7c2.3,2.1,4.7,3.7,7,5.3
				c1.2,0.8,2.4,1.4,3.5,2.1c1.1,0.6,2.2,1.3,3.3,1.8c4.4,2.2,8.4,3.6,11.8,4.5c1.7,0.4,3.2,0.8,4.5,1.1c1.3,0.2,2.4,0.4,3.3,0.5
				c1.8,0.2,2.8,0.4,2.8,0.4l0.1,0c0.2,0,0.4-0.1,0.4-0.3c0.1-0.2-0.1-0.4-0.3-0.5c0,0-0.9-0.3-2.7-0.8c-0.9-0.3-1.9-0.6-3.2-0.9
				c-1.2-0.5-2.6-1-4.2-1.6c-3.1-1.3-6.8-3-10.7-5.5c-1-0.6-2-1.3-3-2c-1-0.7-2.1-1.4-3.1-2.2c-2-1.7-4.2-3.4-6.2-5.4
				c-2.1-1.9-4-4.3-6-6.6c-0.9-1.2-1.8-2.5-2.8-3.8c-0.9-1.3-1.7-2.7-2.6-4.1c-3.3-5.6-6.1-12.1-7.8-19c-0.4-1.8-0.8-3.5-1.1-5.3
				c-0.2-1.8-0.5-3.6-0.7-5.4c-0.1-1.8-0.2-3.7-0.2-5.5c-0.1-0.9,0-1.9,0-2.8c0-0.9,0.1-1.9,0.1-2.8c0.2-3.7,0.8-7.5,1.7-11.2
				c0.9-3.7,2-7.3,3.5-10.8c2.9-7,7-13.6,11.9-19.3c4.9-5.7,10.7-10.4,16.8-14.2c3.1-1.9,6.2-3.4,9.4-4.8c3.2-1.3,6.4-2.4,9.6-3.2
				c6.4-1.6,12.6-2.3,18.3-2.2c1.4,0,2.9,0.1,4.2,0.1c1.4,0.1,2.7,0.3,4,0.4c1.3,0.1,2.5,0.4,3.8,0.6c0.6,0.1,1.2,0.2,1.8,0.3
				c0.6,0.1,1.2,0.3,1.7,0.4c1.1,0.3,2.2,0.5,3.3,0.8c1,0.3,2,0.7,3,1c1.9,0.6,3.6,1.4,5.2,1.9c3.1,1.3,5.4,2.5,7,3.4
				c1.6,0.9,2.4,1.4,2.4,1.4c0.2,0.1,0.4,0.1,0.5-0.1C178,98.3,177.9,98.1,177.7,97.9L177.7,97.9z"/>
			<path fill="#FFFFFF" d="M185.7,79.3c0,0-1-0.7-2.9-2c-1-0.6-2.1-1.5-3.6-2.3c-1.5-0.8-3.1-1.9-5.1-2.8c-1.9-0.9-4.1-2-6.6-2.9
				c-2.4-1.1-5.1-1.9-8.1-2.8c-1.5-0.5-3-0.8-4.6-1.2c-0.8-0.2-1.6-0.4-2.4-0.6c-0.8-0.1-1.7-0.3-2.6-0.4c-1.7-0.3-3.6-0.6-5.3-0.7
				c-0.9-0.1-1.7-0.2-2.6-0.2c-0.4,0-0.9-0.1-1.3-0.1l-0.3,0l-0.1,0c0.1,0-0.2,0-0.2,0l-0.2,0l-0.7,0c-7.6-0.3-16,0.1-24.5,2.2
				c-4.3,0.9-8.6,2.4-13,4c-4.4,1.6-8.6,3.8-12.8,6.2c-4.2,2.4-8.2,5.3-12.2,8.4c-1,0.8-2,1.6-2.9,2.4c-0.9,0.9-1.9,1.7-2.8,2.6
				c-1.8,1.8-3.6,3.6-5.3,5.6c-6.8,7.7-12.4,16.6-16.5,26.2c-2,4.8-3.5,9.8-4.7,14.9c-0.3,1.3-0.6,2.5-0.8,3.8l-0.7,3.8
				c-0.3,2.6-0.7,5.1-0.8,7.8c-0.1,1.3-0.2,2.7-0.2,3.8c0,1.2,0,2.5-0.1,3.7c0.2,2.5,0.3,5,0.5,7.6c0.2,2.5,0.7,4.9,1,7.4
				c0.1,0.6,0.2,1.2,0.3,1.8l0.4,1.8c0.3,1.2,0.6,2.4,0.8,3.6c2.4,9.4,6.3,18,10.9,25.5c1.2,1.8,2.4,3.7,3.6,5.4
				c1.3,1.7,2.6,3.4,3.9,5c1.3,1.6,2.8,3,4.1,4.5c0.7,0.7,1.3,1.5,2,2.1c0.7,0.7,1.4,1.3,2.1,1.9c0.7,0.6,1.4,1.3,2.1,1.9l1,0.9
				c0.3,0.3,0.7,0.6,1.1,0.9c1.4,1.1,2.8,2.2,4.2,3.2c0.7,0.5,1.4,1,2.1,1.4c0.7,0.4,1.4,0.9,2.1,1.3c0.7,0.4,1.4,0.9,2,1.3
				c0.3,0.2,0.7,0.4,1,0.6c0.3,0.2,0.7,0.4,1,0.5c5.3,3,10.2,5,14.4,6.4c2.1,0.7,3.9,1.2,5.5,1.7c1.6,0.4,3,0.6,4.1,0.9
				c2.2,0.5,3.4,0.7,3.4,0.7l0,0c0.2,0,0.4-0.1,0.5-0.3c0.1-0.2,0-0.4-0.3-0.5c0,0-1.2-0.4-3.3-1.1c-1.1-0.4-2.4-0.8-4-1.3
				c-1.5-0.6-3.2-1.3-5.2-2.1c-3.8-1.7-8.4-4.1-13.3-7.3c-0.3-0.2-0.6-0.4-0.9-0.6c-0.3-0.2-0.6-0.4-0.9-0.7
				c-0.6-0.4-1.2-0.9-1.9-1.4c-0.6-0.5-1.3-0.9-1.9-1.4c-0.6-0.5-1.3-0.9-1.9-1.5c-1.2-1.1-2.5-2.2-3.8-3.3c-0.3-0.3-0.7-0.6-1-0.9
				l-0.9-0.9c-0.6-0.6-1.2-1.3-1.9-1.9c-5-5.2-9.9-11.3-13.9-18.6c-4-7.2-7.3-15.4-9.3-24.1c-2-8.8-2.9-18.1-2-27.6
				c0.7-9.4,3-18.8,6.7-27.7c3.7-8.8,8.7-17.1,14.9-24.3c6.1-7.2,13.3-13.2,21-18c3.8-2.3,7.8-4.4,11.7-6.2c4-1.7,8-3.2,12-4.2
				c8-2.2,15.8-3.1,23-3.2c7.2,0,13.8,0.7,19.6,1.9c1.4,0.3,2.8,0.7,4.1,1c1.3,0.3,2.6,0.7,3.8,1.1c2.5,0.7,4.6,1.5,6.6,2.3
				c1,0.4,1.9,0.7,2.8,1.1c0.9,0.4,1.7,0.7,2.4,1.1c1.5,0.6,2.7,1.3,3.7,1.8c2,1.1,3.1,1.6,3.1,1.6c0.2,0.1,0.4,0,0.5-0.1
				C185.9,79.7,185.9,79.5,185.7,79.3L185.7,79.3z"/>
			<path fill="#FFFFFF" d="M228.8,92.1c0.5,0.6,0.9,1.3,1.4,2c1,1.4,2.1,3,3.1,4.6c0.6,0.8,1.1,1.7,1.6,2.6c0.5,0.9,1.1,1.8,1.6,2.8
				c1,1.9,2.1,3.9,3.1,5.9c0.5,1,1,2.1,1.4,3.1c0.5,1.1,0.9,2.1,1.4,3.2c0.4,1.1,0.9,2.1,1.3,3.2c0.4,1.1,0.8,2.2,1.2,3.2
				c0.4,1.1,0.8,2.1,1.1,3.2c0.3,1.1,0.6,2.1,1,3.2c0.5,2.1,1.1,4.1,1.5,6.1c0.2,1,0.4,1.9,0.6,2.8c0.2,0.9,0.3,1.8,0.5,2.7
				c0.3,1.7,0.5,3.3,0.7,4.7c0.1,0.7,0.2,1.4,0.3,2c0.1,0.6,0.1,1.2,0.1,1.7c0.2,2,0.3,3.2,0.3,3.2c0,0.1,0.1,0.2,0.2,0.2
				c0.1,0,0.2-0.1,0.2-0.2l0,0c0,0,0-0.3,0.1-0.8c0.1-0.6,0.2-1.4,0.3-2.4c0.1-0.5,0.1-1.1,0.2-1.7c0-0.6,0-1.3,0.1-2
				c0-0.7,0-1.5,0.1-2.3c0-0.8-0.1-1.7-0.1-2.6c0-0.9-0.1-1.8-0.1-2.8c-0.1-1-0.2-1.9-0.3-3c-0.2-2-0.6-4.2-1.1-6.4
				c-0.2-1.1-0.5-2.2-0.8-3.3c-0.1-0.6-0.3-1.1-0.4-1.7c-0.2-0.6-0.4-1.1-0.5-1.7c-0.4-1.1-0.7-2.3-1.1-3.4
				c-0.4-1.1-0.8-2.2-1.3-3.4c-0.5-1.1-1-2.2-1.5-3.3c-0.5-1.1-1-2.2-1.6-3.2c-1-2.1-2.3-4.1-3.5-6c-1.2-1.9-2.5-3.7-3.7-5.3
				c-0.6-0.8-1.2-1.6-1.9-2.3c-0.6-0.7-1.3-1.4-1.9-2.1c-0.6-0.7-1.2-1.3-1.7-1.9c-0.6-0.6-1.2-1.1-1.7-1.6c-1-1-2-1.8-2.8-2.5
				c-0.8-0.7-1.5-1.1-1.9-1.5c-0.4-0.3-0.7-0.5-0.7-0.5l0,0c-0.1-0.1-0.2-0.1-0.2,0c-0.1,0.1-0.1,0.2,0,0.3c0,0,0.7,0.9,2.1,2.4
				c0.7,0.8,1.4,1.7,2.3,2.9C227.8,90.9,228.3,91.5,228.8,92.1z"/>
			<path fill="#FFFFFF" d="M77.1,255.6c4.2,2.6,8.4,4.6,12.5,6.4c2.1,0.8,4.1,1.7,6.1,2.4c2,0.7,3.9,1.4,5.8,1.9
				c7.6,2.3,14.4,3.4,20,3.9c5.6,0.5,10,0.5,13,0.4c3-0.1,4.5-0.2,4.5-0.2l0,0c0.2,0,0.4-0.2,0.4-0.4c0-0.2-0.2-0.4-0.4-0.4
				c0,0-1.6-0.1-4.5-0.2c-2.9-0.1-7.2-0.5-12.7-1.4c-5.4-0.9-11.9-2.4-19.1-5c-1.8-0.6-3.6-1.4-5.5-2.2c-1.9-0.8-3.8-1.7-5.7-2.6
				c-3.8-2-7.8-4.1-11.7-6.7c-2-1.2-3.9-2.7-5.9-4.1c-1-0.7-1.9-1.5-2.9-2.3c-1-0.8-2-1.6-2.9-2.4c-3.9-3.3-7.6-7-11.1-11.1
				c-3.6-4-6.9-8.5-9.9-13.3c-3.1-4.8-5.8-9.9-8.1-15.3c-2.3-5.4-4.3-11-5.8-16.9c-1.5-5.9-2.5-11.9-3-18.1
				c-0.1-1.5-0.3-3.1-0.3-4.6c0-1.5-0.1-3.1-0.1-4.6c0.1-3.1,0.1-6.3,0.4-9.3c0.5-6.2,1.6-12.4,3.1-18.5
				c3.1-12.1,8.3-23.7,15.2-33.9C55.3,86.9,63.7,78,73.1,70.9c4.7-3.6,9.5-6.7,14.5-9.4c5-2.7,10.1-4.9,15.1-6.8
				c5.1-1.8,10.1-3.2,15.1-4.3c1.2-0.2,2.5-0.4,3.7-0.7c0.6-0.1,1.2-0.2,1.8-0.3c0.6-0.1,1.2-0.2,1.8-0.2c1.2-0.2,2.4-0.3,3.6-0.5
				c1.2-0.1,2.4-0.2,3.6-0.3c9.4-0.7,18.1-0.1,25.6,1.1c0.9,0.1,1.9,0.3,2.8,0.4c0.9,0.2,1.8,0.4,2.7,0.6c1.7,0.4,3.4,0.7,5,1.2
				c3.2,0.9,6.1,1.7,8.7,2.7c1.3,0.5,2.5,0.9,3.7,1.3c1.1,0.5,2.2,0.9,3.2,1.4c1,0.4,1.9,0.8,2.7,1.2c0.8,0.4,1.5,0.8,2.2,1.1
				c2.6,1.3,4,2,4,2c0.2,0.1,0.4,0,0.5-0.2c0.1-0.2,0.1-0.4-0.1-0.6l0,0c0,0-1.4-0.8-3.9-2.4c-0.6-0.4-1.3-0.8-2.1-1.3
				c-0.8-0.4-1.7-0.9-2.7-1.4c-1-0.5-2-1.1-3.1-1.6c-1.1-0.5-2.4-1-3.6-1.6c-2.6-1.2-5.5-2.2-8.7-3.4c-1.6-0.6-3.3-1-5.1-1.5
				c-0.9-0.2-1.8-0.5-2.7-0.7c-0.9-0.2-1.9-0.4-2.8-0.6c-1.9-0.4-3.9-0.9-6-1.2c-1.1-0.2-2.1-0.3-3.2-0.5c-0.5-0.1-1.1-0.2-1.7-0.2
				c-0.5-0.1-1.1-0.1-1.6-0.2c-1.1-0.1-2.2-0.2-3.3-0.3c-0.5,0-1.1-0.1-1.7-0.1l-0.4,0l-0.2,0l-0.1,0c-0.1,0,0.1,0-0.2,0l-0.9,0
				c-2.3,0-4.7-0.2-7.2,0c-1.2,0-2.5,0.1-3.7,0.1c-1.3,0.1-2.5,0.2-3.8,0.3c-0.6,0.1-1.3,0.1-1.9,0.2c-0.6,0.1-1.3,0.2-1.9,0.3
				c-1.3,0.2-2.6,0.4-3.9,0.5c-5.2,0.9-10.6,2.2-16,4c-5.4,1.8-10.8,4-16.2,6.7c-5.4,2.7-10.6,6-15.6,9.7
				c-5.1,3.7-9.9,7.9-14.4,12.5l-1.7,1.7l-1.6,1.8c-1.1,1.2-2.2,2.4-3.2,3.7c-1,1.3-2.1,2.5-3,3.9c-1,1.3-1.9,2.7-2.9,4
				c-7.4,10.9-13.1,23.3-16.6,36.3c-1.6,6.5-2.7,13.1-3.2,19.9l-0.2,2.6l-0.1,1.3l0,1.2c0,1.6-0.1,3.3-0.1,4.9
				c0.1,1.7,0.1,3.3,0.2,5c0,1.7,0.2,3.3,0.4,4.9c0,0.1,0,0.1,0,0.2c11.1,28.2,25.9,55,43.8,79.3C69.8,251,73.4,253.5,77.1,255.6z"
				/>
			<path fill="#FFFFFF" d="M99.7,286.9c1.5,0.4,3,0.8,4.5,1.1c0.8,0.2,1.6,0.4,2.4,0.6c0.8,0.2,1.6,0.3,2.4,0.5
				c1.6,0.3,3.1,0.6,4.6,0.9c3.1,0.4,6,0.9,8.8,1.1c1.4,0.1,2.8,0.2,4.2,0.4c1.4,0.1,2.7,0.1,4,0.2c2.6,0.2,5.1,0.1,7.4,0.1
				c0.6,0,1.2,0,1.7,0c0.6,0,1.2-0.1,1.7-0.1c1.1-0.1,2.2-0.1,3.2-0.2c2.1-0.1,4-0.4,5.8-0.6c3.6-0.4,6.7-1,9.1-1.5
				c2.5-0.5,4.3-1,5.5-1.2c1.3-0.3,1.9-0.4,1.9-0.4l0,0c0.2,0,0.3-0.3,0.3-0.5c0-0.2-0.2-0.4-0.5-0.3c0,0-0.7,0.1-1.9,0.3
				c-1.3,0.2-3.1,0.6-5.6,1c-4.9,0.7-12.1,1.5-21.4,1.4c-2.3-0.1-4.8-0.1-7.3-0.3c-1.3-0.1-2.6-0.2-3.9-0.3
				c-1.3-0.2-2.7-0.3-4.1-0.5c-2.8-0.3-5.6-0.9-8.6-1.4c-1.5-0.3-3-0.7-4.5-1c-0.8-0.2-1.5-0.4-2.3-0.5c-0.8-0.2-1.5-0.4-2.3-0.7
				c-3.6-1-7.4-2.2-11.1-3.7C95.8,283.1,97.8,285,99.7,286.9z"/>
			<path fill="#FFFFFF" d="M12.4,105.6l-0.5,1.3l-1.5,3.9c-0.5,1.3-0.9,2.6-1.3,3.9c-0.6,1.8-1.2,3.6-1.7,5.5
				c0.1,0.8,0.2,1.7,0.4,2.5c1.1,4.7,2.3,9.4,3.6,14c1.1-6.6,2.8-13.2,5-19.6c0.4-1.2,0.8-2.5,1.3-3.7l1.4-3.6l0.7-1.8l0.8-1.8
				l1.6-3.6c0.6-1.2,1.2-2.3,1.8-3.5c0.6-1.2,1.2-2.3,1.8-3.5c0.9-1.6,1.8-3.2,2.8-4.8c-5.4,4.6-10.6,9.3-15.8,14.2
				C12.7,105.3,12.6,105.5,12.4,105.6z"/>
			<path fill="#FFFFFF" d="M141.7,28.3c2.5,0.1,5.1,0.1,7.6,0.3c1.2,0.1,2.5,0.2,3.7,0.3c1.2,0.1,2.5,0.3,3.7,0.4
				c1.2,0.2,2.5,0.3,3.7,0.5c1.2,0.2,2.4,0.4,3.7,0.6c19.5,3.5,37.3,11.6,52,22.1c14.8,10.5,26.4,23.6,34.8,37
				c4.2,6.7,7.6,13.5,10.3,20.2c0.6,1.7,1.4,3.3,1.9,5c0.6,1.7,1.1,3.3,1.7,4.9c0.9,3.3,1.9,6.5,2.6,9.6c0.8,3.1,1.3,6.2,1.8,9.2
				c0.2,1.5,0.4,3,0.6,4.4c0.2,1.4,0.4,2.8,0.5,4.2c0.2,2.8,0.5,5.4,0.5,8c0,1.3,0.1,2.5,0.1,3.7c0,1.2-0.1,2.4-0.1,3.6
				c0,4.6-0.5,8.7-0.8,12.3c-0.5,3.6-1,6.6-1.4,9c-1.1,4.8-1.6,7.4-1.6,7.4l0,0c0,0.2,0.1,0.4,0.3,0.5c0.2,0.1,0.4-0.1,0.5-0.3
				c0,0,0.7-2.6,2-7.4c0.5-2.4,1.2-5.5,1.9-9c0.3-1.8,0.5-3.8,0.8-5.8c0.3-2.1,0.4-4.3,0.6-6.6c0.1-1.2,0.2-2.4,0.2-3.6
				c0-1.2,0-2.5,0-3.8c0.1-2.6-0.1-5.3-0.2-8.2c0-1.4-0.2-2.9-0.3-4.3c-0.1-1.5-0.2-3-0.4-4.5c-0.4-3-0.8-6.2-1.5-9.4
				c-2.4-13-7.4-27.4-15.7-41.5c-4.2-7.1-9.2-14.1-15.1-20.7c-5.9-6.7-12.7-12.9-20.3-18.6c-7.6-5.7-16-10.7-25.1-14.9
				c-9.1-4.2-18.9-7.3-29.1-9.3c-1.3-0.2-2.6-0.5-3.8-0.7c-0.6-0.1-1.1-0.2-1.7-0.3c-6.6,1.7-13.1,3.6-19.6,5.7
				C140.7,28.3,141.2,28.3,141.7,28.3z"/>
			<path fill="#FFFFFF" d="M144.5,311.6c2.8-0.2,5.5-0.2,7.9-0.6c2.5-0.3,4.8-0.7,7-1c2.2-0.4,4.1-0.8,5.9-1.2
				c1.8-0.4,3.5-0.7,4.9-1c5.8-1.6,8.8-2.4,8.8-2.4l0,0c0.2-0.1,0.3-0.3,0.3-0.5c0-0.2-0.3-0.4-0.5-0.3c0,0-3.1,0.7-8.9,2
				c-1.5,0.3-3.1,0.5-4.9,0.8c-1.8,0.3-3.8,0.7-5.9,0.9c-4.3,0.4-9.2,1-14.8,1.1c-6.1,0.2-13,0-20.5-0.8c1.3,1,2.5,2,3.8,3
				C133.8,312,139.4,311.9,144.5,311.6z"/>
			<path fill="#FFFFFF" d="M240.7,46.8c16.2,14.5,28.3,31.8,36.2,49c4,8.6,7,17.3,9.2,25.7c2.1,8.4,3.4,16.5,4.1,24.2
				c0.8,7.7,0.6,14.9,0.4,21.6c-0.5,6.7-1.1,12.8-2.1,18.2c-0.2,1.4-0.5,2.7-0.7,4c-0.3,1.3-0.6,2.5-0.9,3.7
				c-0.3,1.2-0.6,2.4-0.8,3.5c-0.3,1.1-0.6,2.2-0.9,3.2c-0.6,2.1-1.1,4-1.7,5.7c-0.6,1.7-1.1,3.3-1.6,4.7c-0.5,1.4-1,2.6-1.4,3.7
				c-0.4,1.1-0.8,1.9-1.1,2.6c-0.6,1.4-0.9,2.2-0.9,2.2c-0.1,0.2,0,0.4,0.2,0.5c0.2,0.1,0.4,0,0.5-0.2c0,0,0.3-0.7,1-2.1
				c0.3-0.7,0.7-1.6,1.2-2.6c0.5-1,1-2.2,1.6-3.6c0.5-1.4,1.2-3,1.8-4.7c0.7-1.7,1.3-3.6,2-5.7c0.7-2.1,1.4-4.3,2-6.7
				c0.3-1.2,0.7-2.5,1-3.7c0.3-1.3,0.6-2.6,0.9-4c1.2-5.5,2.1-11.7,2.8-18.5c0.2-1.7,0.2-3.4,0.3-5.1c0-0.9,0.1-1.7,0.1-2.6l0-0.7
				l0-0.7c0-0.5,0-0.9,0-1.4c0-1.8,0-3.7,0-5.6c-0.1-1.9-0.2-3.8-0.3-5.8c-0.5-7.9-1.5-16.3-3.4-25c-2-8.7-4.9-17.6-8.8-26.6
				c-3.9-9-8.9-18-14.9-26.7c-6.1-8.7-13.3-17.1-21.6-24.8c-8.3-7.7-17.7-14.7-28-20.7c-4.5-2.6-9.1-5-13.9-7.1
				c-4.6,0.6-9.2,1.2-13.8,2C208.8,23.1,226.4,33.9,240.7,46.8z"/>
			<path fill="#FFFFFF" d="M158.1,330.1c0.6-0.1,1.2-0.1,1.8-0.2c0.6-0.1,1.2-0.2,1.8-0.3c2.3-0.4,4.4-0.8,6.2-1.1
				c1.9-0.3,3.5-0.7,4.9-1c1.4-0.3,2.6-0.6,3.5-0.8c1.9-0.4,2.9-0.7,2.9-0.7l0,0c0.2,0,0.3-0.3,0.3-0.5c0-0.2-0.3-0.4-0.5-0.3
				c0,0-1,0.2-2.9,0.6c-0.9,0.2-2.1,0.4-3.5,0.7c-1.4,0.3-3,0.7-4.9,0.9c-1.8,0.3-3.9,0.6-6.2,0.9c-0.6,0.1-1.1,0.2-1.7,0.2
				c-0.6,0.1-1.2,0.1-1.8,0.2c-1.2,0.1-2.6,0.2-3.9,0.3c-0.7,0.1-1.4,0.1-2.1,0.2c0.7,0.5,1.5,1,2.2,1.5c0,0,0,0,0,0
				C155.6,330.4,156.9,330.3,158.1,330.1z"/>
			<path fill="#FFFFFF" d="M315.3,140.5L315,138c-1.3-13.2-4.3-26.8-9-40.2c-4.8-13.3-11.3-26.5-19.5-39
				c-8.3-12.4-18.4-24.1-30.1-34.3c-5-4.5-10.4-8.6-16-12.5c-4.3,0-8.6,0.1-12.9,0.3c8.7,5.2,16.8,11,24.2,17.5
				c11.4,9.7,21.1,20.9,29.2,32.7c8.1,11.9,14.5,24.5,19.3,37.3c9.4,25.8,12.1,52.2,9.5,75.9c-0.3,4.4-1,8.8-1.8,13
				c3.4-13.8,6-27.7,7.6-41.8c-0.1-1.4-0.2-2.8-0.2-4.2C315.4,142.2,315.3,141.3,315.3,140.5z"/>
			<path fill="#FFFFFF" d="M293,234.8c-0.6,1.1-1.2,2.2-1.7,3.2c-9.1,17.2-19.7,30.6-29.5,40.6c-9.8,10-18.7,16.4-24.8,20.8
				c-3.1,2.1-5.5,3.6-7.2,4.6c-1.6,1-2.5,1.6-2.5,1.6l0,0c-0.2,0.1-0.2,0.4-0.1,0.5c0.1,0.2,0.4,0.3,0.6,0.1c0,0,0.9-0.5,2.5-1.5
				c1.7-1,4.2-2.4,7.4-4.4c1.6-1.1,3.3-2.3,5.2-3.6c1-0.7,2-1.3,3-2.1c1-0.7,2-1.6,3.1-2.4c1.1-0.8,2.2-1.7,3.4-2.6
				c1.1-0.9,2.4-1.8,3.5-2.9c2.3-2.1,4.8-4.3,7.4-6.7c6.6-6.3,13.5-14.2,20.2-23.6c4-8.2,7.6-16.5,11-25.1
				C294,232.6,293.5,233.7,293,234.8z"/>
			<path fill="#FFFFFF" d="M233.8,325.1c-1.7,0.9-3.3,1.9-5.1,2.8c-1.8,0.9-3.6,1.8-5.4,2.7c-1.8,0.9-3.7,1.7-5.6,2.6
				c-0.9,0.4-1.9,0.8-2.8,1.3c-1,0.4-1.9,0.8-2.9,1.2c-2,0.8-3.9,1.6-5.9,2.3c-2,0.7-4,1.4-5.9,2.1c-2,0.7-4,1.2-6,1.9
				c-1,0.3-2,0.6-3,0.9c-1,0.3-2,0.5-3,0.8c-2,0.5-3.9,1-5.8,1.5c-0.8,0.2-1.7,0.3-2.5,0.5c1.7,0.9,3.3,1.7,5,2.6
				c1.4-0.3,2.8-0.6,4.3-0.9c1-0.2,2-0.5,3.1-0.7c1-0.3,2-0.6,3-0.9c2-0.6,4.1-1.2,6.1-1.8c2-0.7,4.1-1.4,6.1-2.1c2-0.7,4-1.6,6-2.4
				c1-0.4,2-0.8,3-1.2c1-0.4,1.9-0.9,2.9-1.3c1.9-0.9,3.8-1.7,5.7-2.7c1.8-1,3.6-2,5.4-2.9c0.9-0.5,1.8-1,2.6-1.5
				c0.9-0.5,1.7-1,2.5-1.5c1.2-0.7,2.3-1.4,3.4-2.2c2-2.4,4-4.9,6-7.4c-2,1.3-4,2.5-6.2,3.9C237.1,323.3,235.4,324.2,233.8,325.1z"
				/>
			<path fill="#FFFFFF" d="M310.5,58.5c-1.1-2-2.2-4.1-3.5-6c-1.2-2-2.4-4-3.8-6c-1.4-1.9-2.7-3.9-4.1-5.9
				c-5.7-7.7-12-15.1-18.8-22.1c-1.6-1.6-3.2-3.2-4.9-4.7c-4.4-0.4-8.8-0.8-13.2-1.1c4.3,3.6,8.5,7.4,12.5,11.5
				c6.6,6.6,12.8,13.7,18.3,21c5.5,7.4,10.4,15.1,14.6,22.7c1,1.9,2.1,3.8,3,5.8c0.9,1.9,1.9,3.9,2.8,5.8c0.9,1.9,1.7,3.8,2.5,5.7
				c0.4,1,0.8,1.9,1.2,2.8c0.2,0.6,0.4,1.1,0.6,1.7c-0.3-6.8-0.8-13.5-1.6-20.3c-0.8-1.6-1.6-3.2-2.4-4.9
				C312.8,62.5,311.7,60.5,310.5,58.5z"/>
		</g>
	</g>
</g>
<g id="Typografi">
	<g id="Langt_navn">
	</g>
	<g id="Navnetrekk">
		<g>
			<g>
				<path fill="#FFFFFF" d="M864,102.2c-5,0-9.1,3.7-9.1,8.3v113.6c0,4.6,4.1,8.3,9.1,8.3c5,0,9.1-3.7,9.1-8.3V110.5
					C873.1,105.9,869,102.2,864,102.2z"/>
				<path fill="#FFFFFF" d="M945.7,102.4c-27.5,10.8-51.1,30-67.5,55.5c-2,3.2-2.2,7.2-0.5,10.6c9.8,19.6,24.2,37,41.5,50.3
					c6,4.6,19.1,12.4,19.1,12.4c0.2,0.1,0.3,0.2,0.5,0.3c4.1,2.1,9.1,0.6,11.4-3.5c2.3-4.1,0.9-9.2-3.2-11.6l0,0
					c-3.6-2.3-7.1-4.7-10.4-7.3c-16.3-12.5-29.7-28.9-39-47.3c-1.6-3.2-1.4-7,0.5-10c12.6-19.5,29.5-35.1,49.3-45.7l0,0
					c1-0.6,1.4-1.7,0.9-2.7c-0.4-1-1.5-1.4-2.5-1.1L945.7,102.4z"/>
			</g>
			<path fill="#FFFFFF" d="M675.4,102.2c-16,0-28.7,4.8-37.8,14.4c-16.8,17.6-15.8,45.5-15.8,45.8c0,28.4,7.6,48.5,22.5,60.1
				c11.6,9,24.4,10,29.3,10c1,0,1.6,0,1.7,0h0.3c0,0,0.6,0,1.7,0c4.9,0,17.6-1,29.3-10c14.9-11.5,22.5-31.7,22.5-60
				c0-0.4,1-28.3-15.8-45.9C704.1,107,691.4,102.2,675.4,102.2z M695.7,214.6c-5.4,5.8-12.2,8.7-20.4,8.7c-8.2,0-15-2.9-20.4-8.7
				c-15.2-16.3-13.1-49.9-13.1-52.2c0-20.4,4.5-35,13.5-43.6c7.3-7.1,15.5-7.8,18.7-7.8c0.6,0,1,0,1.3,0c0.3,0,0.7,0,1.3,0
				c3.2,0,11.3,0.8,18.7,7.8c8.9,8.6,13.5,23.3,13.5,43.6C708.8,166.3,710.9,198.2,695.7,214.6z"/>
			<path fill="#FFFFFF" d="M1062.4,111c0-4.8-4.3-8.8-9.6-8.8s-9.6,3.9-9.6,8.8v72.3c0,38.6-25.5,40.6-30.7,40.6c-0.3,0-1.1,0-1.4,0
				c-2.9,0-10.3-0.6-17.2-5.9c-8.9-6.8-13.4-18.5-13.4-34.7V111c0-4.8-4.3-8.8-9.6-8.8c-5.3,0-9.6,3.9-9.6,8.8c0,0.1,0,0.2,0,0.2
				l0,0.2l0,71.7c0,0.3-1.1,21.3,12.5,35.8c8.7,9.3,21.5,14,38.1,14c16.6,0,29.4-4.7,38.1-14c13.6-14.5,12.6-35.5,12.5-35.7l0-71.7
				l0-0.3C1062.4,111.1,1062.4,111.1,1062.4,111z"/>
			<path fill="#FFFFFF" d="M829.5,163.1c-5,0-9.1,3.7-9.1,8.2v43.6c0,3.3-2.4,3.9-4.8,4.7c-3.6,1.1-7.2,2.4-15.5,2.6
				c-0.4,0-40.1-0.6-40.1-55c0-45.2,29.2-55,40.4-55c7,0,15.5,3.4,21.2,5.7c1.4,0.5,2.6,1,3.4,1.3l0.6,0.2c0.4,0.1,0.9,0.2,1.5,0.2
				c2.4,0,4.5-1.5,5.3-3.7c1-2.8-0.2-5.8-2.8-7.1l-1.5-0.7l0,0c-3.7-1.7-14.7-6.2-30.9-5.9c-48.2,1-56.4,42.9-57.7,60.7
				c0,0.3-1.5,36.1,17.4,56c8.4,8.8,19.6,13.5,33.4,13.5c0.1,0,15.3-0.5,25.2-2.4c0.1,0,1.6-0.2,3.4-0.2c2.1,0,3.9,0.2,5.1,0.9l0,0
				c2,1.3,3.8,1.7,5.7,1.7c5,0,9.1-3.7,9.1-8.2v-52.8C838.6,166.8,834.6,163.1,829.5,163.1z"/>
			<g>
				<path fill="#FFFFFF" d="M531.1,102.2c-5,0-9.1,3.7-9.1,8.3v113.6c0,4.6,4.1,8.3,9.1,8.3c5,0,9.1-3.7,9.1-8.3V110.5
					C540.2,105.9,536.1,102.2,531.1,102.2z"/>
				<path fill="#FFFFFF" d="M612.7,102.4c-27.5,10.8-51.1,30-67.5,55.5c-2,3.2-2.2,7.2-0.5,10.6c9.8,19.6,24.2,37,41.5,50.3
					c6,4.6,19.1,12.4,19.1,12.4c0.2,0.1,0.3,0.2,0.5,0.3c4.1,2.1,9.1,0.6,11.4-3.5c2.3-4.1,0.9-9.2-3.2-11.6l0,0
					c-3.6-2.3-7.1-4.7-10.4-7.3c-16.3-12.5-29.7-28.9-39-47.3c-1.6-3.2-1.4-7,0.5-10c12.6-19.5,29.5-35.1,49.3-45.7l0,0
					c1-0.6,1.4-1.7,0.9-2.7c-0.4-1-1.5-1.4-2.5-1.1L612.7,102.4z"/>
			</g>
			<path fill="#FFFFFF" d="M1173.5,216.8c-3.5-2.2-6.9-4.3-10.1-6.8c-8.1-6.2-15.4-13.5-21.9-21.4c-1-1.2-1.1-3.2-1.1-3.2
				c0-4.3,5.5-6.3,5.5-6.3c1.4-0.8,3.1-1.7,4.9-2.6c1.7-0.9,3.5-1.8,5.5-2.9c10.6-5.8,14-12.5,15.9-17.8c1.8-5.1,1.8-13.9,1.8-14
				c0-37.8-35.5-39.7-42.6-39.7c-0.5,0-0.8,0-0.8,0c-14,0-24.8,3.8-32.4,11.4c-11.1,11.1-11.2,26.5-11.2,26.7v83.4
				c0,4.8,4.3,8.7,9.7,8.7c5.3,0,9.6-3.9,9.6-8.7l-0.2-82.9c0-26.7,17-29.5,24.3-29.5h0.2c7.1,0,23.6,2.9,23.6,29.9
				c0,17.5-8.3,25.5-16.2,29.3c-3.9,1.9-10.3,3.2-10.3,3.2s-6.7,0.9-9.4,7.6c0,0-2.7,6.1,1.9,11.8c7.8,9.7,16.4,18.9,26.2,26.4
				c5.9,4.5,18.6,11.8,18.6,11.8c0.2,0.1,0.3,0.2,0.5,0.3c4,2,8.9,0.5,11.1-3.4C1178.8,224.1,1177.4,219.1,1173.5,216.8z"/>
			<path fill="#FFFFFF" d="M1231.9,157.2c-1.5-0.6-4.6-2.1-5.4-2.5c-6.8-3.2-19.4-9.1-19.4-24.3c0-2.3,0.6-4.5,1.6-6.5
				c1.9-3.8,5.4-7.1,9.6-9.4c0.7-0.4,1.4-0.7,2.1-1.1c1-0.4,1.9-0.8,2.9-1.1c5.6-2,12.2-2.9,19.3-2.4c6.8,0.5,13,2.2,18.1,4.8
				c1.1,0.2,2-0.4,2.4-1.4c0.4-1-0.3-2.1-1.1-2.5c-2.5-1.2-15.9-8.6-29.1-8.6c-28.6,0-45.6,16.7-45.6,33.5
				c0,20.6,16.1,29.1,26.8,34.8c0.8,0.4,5.3,2.9,9.4,4.5c11.2,4.6,24.9,11,24.9,26.8c0,4.3-1.2,8-3.2,11c-0.5,0.8-1,1.5-1.6,2.2
				c-3.7,4.2-9.8,7.5-17.3,9.3c-4.4,1.1-9.2,1.6-14.3,1.5c-0.3,0-0.6,0-0.9,0c-8.1-0.3-15.1-2.6-21.5-5.3c-0.1,0-0.1,0-0.2-0.1
				c-1.1-0.3-2.2,0.3-2.5,1.4c-0.4,1,0.1,2.1,1.1,2.5c0,0,17.1,8.6,33.9,8.6v0c21.6-0.1,45.9-9.7,47.5-36.7
				C1270.6,173.6,1242.5,161.7,1231.9,157.2z"/>
			<path fill="#FFFFFF" d="M468.1,157c-1.5-0.6-4.6-2.1-5.4-2.5c-6.7-3.2-19.3-9.1-19.3-24.2c0-2.3,0.6-4.5,1.6-6.5
				c1.9-3.8,5.4-7.1,9.5-9.4c0.7-0.4,1.4-0.7,2.1-1.1c1-0.4,1.9-0.8,2.9-1.1c5.6-2,12.2-2.9,19.2-2.3c6.7,0.5,12.9,2.2,18,4.8
				c1.1,0.2,2-0.4,2.4-1.4c0.4-1-0.3-2.1-1.1-2.5c-2.5-1.2-15.9-8.5-29-8.5c-28.6,0-45.5,16.7-45.5,33.3c0,20.5,16.1,29,26.7,34.6
				c0.8,0.4,5.3,2.9,9.3,4.5c11.2,4.6,24.8,11,24.8,26.7c0,4.3-1.2,7.9-3.2,11c-0.5,0.8-1,1.5-1.6,2.2c-3.7,4.2-9.8,7.5-17.2,9.3
				c-4.4,1.1-9.2,1.6-14.3,1.5c-0.3,0-0.6,0-0.9,0c-8.1-0.3-15.1-2.6-21.4-5.2c-0.1,0-0.1,0-0.2-0.1c-1.1-0.3-2.2,0.3-2.5,1.4
				c-0.4,1,0.1,2.1,1.1,2.5c0,0,17,8.5,33.8,8.5v0c21.5-0.1,45.7-9.7,47.4-36.5C506.8,173.3,478.7,161.4,468.1,157z"/>
		</g>
	</g>
</g>
<g id="Ytterkant">
	<path fill="#FFFFFF" d="M241.8,12.1c12.6,0,25.4,0.7,38,2.2c5.1,0.6,10.2,1.3,15.3,2.1c7.2,1.2,12.8,6.6,14.5,13.8
		c12.8,56.7,11,116.4-5.4,172.5c-16.4,56.1-46.8,107.1-88,147.5c-3.3,3.3-7.7,5-12.3,5c-0.7,0-1.4,0-2-0.1c-1.8-0.2-3.5-0.7-5.1-1.4
		c-47.1-21.2-89.2-53.8-122-94.3c-32.1-39.7-55.3-87-67.1-136.9c-1.5-6.3,0.5-13,5.1-17.5C75.1,45.1,156.5,12.1,241.8,12.1
		 M241.8,4.9c-87.2,0-170.3,33.8-234,95.1c-6.5,6.2-9.2,15.5-7.1,24.3c12,50.9,35.7,99.2,68.5,139.7c33.5,41.4,76.6,74.7,124.6,96.3
		c2.3,1,4.7,1.7,7.2,2c0.9,0.1,1.9,0.2,2.8,0.2c6.5,0,12.6-2.5,17.3-7.1c42.1-41.3,73.2-93.3,89.9-150.6
		c16.7-57.3,18.6-118.2,5.5-176.1c-2.3-10.1-10.3-17.7-20.3-19.3c-5.2-0.9-10.4-1.6-15.6-2.2C267.8,5.7,254.7,4.9,241.8,4.9
		L241.8,4.9z"/>
</g>
</svg>
